<svg width="114" height="27" viewBox="0 0 114 27" fill="none" xmlns="http://www.w3.org/2000/svg">
<path d="M10 26.7072V10.8653H13.7446V26.7072H10Z" fill="white"/>
<path d="M26.9098 10.5725C28.564 10.5725 29.8372 11.041 30.7295 11.978C31.6318 12.9053 32.083 14.4085 32.083 16.4876V26.7072H28.3384V16.4583C28.3384 15.4041 28.1028 14.6574 27.6316 14.2182C27.1704 13.7692 26.4586 13.5447 25.4961 13.5447C24.7944 13.5447 24.1678 13.7106 23.6163 14.0425C23.0649 14.3743 22.6238 14.838 22.293 15.4334V26.7072H18.5484V10.8653H22.0674L22.1877 12.6955C22.7692 12.0122 23.4609 11.49 24.263 11.1288C25.065 10.7579 25.9473 10.5725 26.9098 10.5725Z" fill="white"/>
<path d="M43.0074 23.9839C43.4085 23.9839 43.8345 23.9351 44.2857 23.8375V26.6486C43.5638 26.8829 42.7518 27 41.8495 27C40.5261 27 39.4834 26.6437 38.7215 25.9312C37.9595 25.2186 37.5786 24.0815 37.5786 22.5198V13.5593H34.9318V10.8653H37.5786V7H41.3231V10.8653H44.1804V13.5593H41.3231V22.2709C41.3231 22.9346 41.4635 23.3885 41.7442 23.6325C42.0249 23.8668 42.446 23.9839 43.0074 23.9839Z" fill="white"/>
<path d="M73.6538 10.5725C75.3081 10.5725 76.5813 11.041 77.4736 11.978C78.3759 12.9053 78.827 14.4085 78.827 16.4876V26.7072H75.0825V16.4583C75.0825 15.4041 74.8469 14.6574 74.3757 14.2182C73.9145 13.7692 73.2027 13.5447 72.2402 13.5447C71.5384 13.5447 70.9118 13.7106 70.3604 14.0425C69.809 14.3743 69.3679 14.838 69.0371 15.4334V26.7072H65.2925V10.8653H68.8115L68.9318 12.6955C69.5133 12.0122 70.205 11.49 71.0071 11.1288C71.8091 10.7579 72.6914 10.5725 73.6538 10.5725Z" fill="white"/>
<path d="M89.0297 20.0893C87.1649 19.7086 85.7262 19.1474 84.7137 18.4056C83.7011 17.6637 83.1948 16.6584 83.1948 15.3895C83.1948 14.5207 83.4504 13.7204 83.9617 12.9883C84.4831 12.2465 85.2199 11.6608 86.1724 11.2313C87.1348 10.7921 88.2427 10.5725 89.4959 10.5725C90.8293 10.5725 91.9872 10.7921 92.9697 11.2313C93.9623 11.6706 94.7242 12.2757 95.2556 13.0469C95.7869 13.8082 96.0526 14.6672 96.0526 15.6237H92.308C92.308 15.204 92.1978 14.8184 91.9772 14.4671C91.7667 14.1059 91.4509 13.818 91.0298 13.6032C90.6087 13.3885 90.0974 13.2811 89.4959 13.2811C88.6437 13.2811 87.987 13.4666 87.5258 13.8375C87.0647 14.2084 86.8341 14.672 86.8341 15.2284C86.8341 15.5798 86.9293 15.8775 87.1198 16.1215C87.3203 16.3655 87.6612 16.5852 88.1424 16.7804C88.6236 16.9756 89.2903 17.1611 90.1425 17.3368C91.4659 17.6101 92.5637 17.9419 93.4359 18.3324C94.3081 18.7228 94.9799 19.2304 95.4511 19.8551C95.9223 20.4797 96.1579 21.2606 96.1579 22.1977C96.1579 23.1249 95.8822 23.9546 95.3308 24.6867C94.7894 25.4187 94.0174 25.9898 93.0148 26.3997C92.0123 26.7999 90.8543 27 89.541 27C88.1173 27 86.8842 26.7462 85.8415 26.2387C84.7989 25.7311 84.0069 25.0722 83.4655 24.2621C82.9241 23.4519 82.6534 22.5979 82.6534 21.6999H86.2776C86.3177 22.5881 86.6536 23.2421 87.2852 23.6618C87.9269 24.0815 88.6988 24.2914 89.6011 24.2914C90.5135 24.2914 91.2203 24.1205 91.7215 23.7789C92.2328 23.4275 92.4885 22.9639 92.4885 22.388C92.4885 22.0171 92.3983 21.6999 92.2178 21.4363C92.0373 21.1728 91.6915 20.9287 91.1802 20.7042C90.6789 20.4797 89.9621 20.2748 89.0297 20.0893Z" fill="white"/>
<path d="M114 19.9283H103.398C103.468 20.7384 103.684 21.4558 104.045 22.0805C104.406 22.7052 104.892 23.1933 105.503 23.5447C106.125 23.896 106.847 24.0717 107.669 24.0717C109.353 24.0717 110.707 23.4275 111.729 22.1391L113.729 24.0278C113.138 24.877 112.316 25.5847 111.263 26.1508C110.21 26.7169 108.937 27 107.443 27C105.859 27 104.476 26.6681 103.293 26.0044C102.11 25.3309 101.202 24.4134 100.571 23.2518C99.9391 22.0903 99.6233 20.7872 99.6233 19.3426V18.7423C99.6233 17.1123 99.9441 15.6823 100.586 14.4524C101.227 13.2128 102.11 12.2562 103.233 11.5827C104.355 10.9092 105.619 10.5725 107.022 10.5725C108.556 10.5725 109.844 10.8995 110.887 11.5534C111.93 12.2074 112.707 13.1249 113.218 14.306C113.739 15.4773 114 16.8389 114 18.3909V19.9283ZM110.301 17.0146C110.25 15.9898 109.965 15.1503 109.443 14.4963C108.922 13.8326 108.11 13.5007 107.007 13.5007C106.025 13.5007 105.233 13.8326 104.631 14.4963C104.03 15.1601 103.644 16.0922 103.473 17.2928H110.301V17.0146Z" fill="white"/>
<path d="M62 19.6818H50.9383C51.0115 20.5202 51.2364 21.2626 51.613 21.9091C51.9895 22.5556 52.4969 23.0606 53.1349 23.4242C53.7835 23.7879 54.5366 23.9697 55.3944 23.9697C57.1517 23.9697 58.5638 23.303 59.6308 21.9697L61.7176 23.9242C61.1004 24.803 60.2427 25.5354 59.1444 26.1212C58.046 26.7071 56.7176 27 55.159 27C53.5063 27 52.0628 26.6566 50.8284 25.9697C49.5941 25.2727 48.6475 24.3232 47.9885 23.1212C47.3295 21.9192 47 20.5707 47 19.0758V18.4545C47 16.7677 47.3347 15.2879 48.0042 14.0152C48.6736 12.7323 49.5941 11.7424 50.7657 11.0455C51.9372 10.3485 53.2552 10 54.7197 10C56.3201 10 57.6642 10.3384 58.7521 11.0152C59.84 11.6919 60.6506 12.6414 61.1841 13.8636C61.728 15.0758 62 16.4848 62 18.0909V19.6818ZM58.1402 16.6667C58.0879 15.6061 57.7898 14.7374 57.2458 14.0606C56.7019 13.3737 55.8546 13.0303 54.704 13.0303C53.6789 13.0303 52.8525 13.3737 52.2249 14.0606C51.5973 14.7475 51.1946 15.7121 51.0167 16.9545H58.1402V16.6667Z" fill="#31C77F"/>
<path d="M1.79551 0.0103258C0.786999 0.112746 0 0.964466 0 2V8C0 9.10457 0.895431 10 2 10C3.10457 10 4 9.10457 4 8V4L8 4C9.10457 4 10 3.10457 10 2C10 0.89543 9.10457 0 8 0H2C1.93096 0 1.86275 0.00349778 1.79551 0.0103258Z" fill="#31C77F"/>
</svg>
